<svg display="none" xmlns="http://www.w3.org/2000/svg">
      <symbol id="phone" width="30" height="30" viewBox="0 0 30 30" fill="none" xmlns="http://www.w3.org/2000/svg">
        <path d="M7.3961 8.62432C7.31155 7.42623 7.57729 6.24606 8.2809 5.29684C8.8909 4.43632 9.68511 3.96636 10.6424 3.69172C11.4487 3.4525 11.9772 3.74561 12.2097 4.64204C12.5419 5.98224 13.016 7.3225 13.1881 8.73361C13.2425 9.35485 12.8408 10.2332 12.406 10.6856C11.3158 11.7589 11.5423 12.5399 12.3698 14.1643C12.6264 14.6881 13.0341 15.5934 13.8283 16.7919C14.6558 17.9992 15.0936 18.6472 16.1566 18.0975C17.3374 17.5035 18.198 17.8855 19.0889 18.8444C19.6928 19.5369 20.3572 20.1318 20.9612 20.8243C21.8339 21.8542 21.7946 22.5641 21.1121 23.2915C19.8831 24.6309 17.8538 25.0736 16.3439 24.1766C15.5104 23.6881 14.6799 23.0487 14.0186 22.303C11.1045 18.9825 9.00266 15.1212 7.73735 10.7632C7.53502 10.0265 7.4414 9.28104 7.3961 8.62432Z" stroke="currentColor" stroke-width="2" stroke-miterlimit="10"/>
      </symbol>

      <symbol id="marker" width="22" height="22" viewBox="0 0 22 22" fill="currentColor" xmlns="http://www.w3.org/2000/svg">
        <path fill-rule="evenodd" clip-rule="evenodd" d="M17.6138 5.21059C18.0498 5.54958 18.1285 6.17784 17.7895 6.61385L10.0145 16.6138C9.84138 16.8365 9.58223 16.9758 9.30094 16.9972C9.01966 17.0186 8.74242 16.9202 8.53757 16.7262L4.3125 12.7262C3.91144 12.3465 3.89412 11.7136 4.27382 11.3126C4.65351 10.9115 5.28644 10.8942 5.6875 11.2739L9.11216 14.5161L16.2105 5.38625C16.5495 4.95024 17.1778 4.87159 17.6138 5.21059Z" fill="#141517"/>
      </symbol>

      <symbol id="mail" width="26" height="20" viewBox="0 0 26 20" fill="currentColor" xmlns="http://www.w3.org/2000/svg">
        <path d="M24.2273 0H1.77273C0.768182 0 0 0.764706 0 1.76471V18.2353C0 19.2353 0.768182 20 1.77273 20H24.2273C25.2318 20 26 19.2353 26 18.2353V1.76471C26 0.764706 25.2318 0 24.2273 0ZM24.2273 17L19.5591 12.3529C19.2045 12 18.6727 12 18.3182 12.3529C17.9636 12.7059 17.9636 13.2353 18.3182 13.5882L22.9864 18.2353H3.01362L7.68182 13.5882C8.03636 13.2353 8.03636 12.7059 7.68182 12.3529C7.32727 12 6.79547 12 6.44092 12.3529L1.77273 17V5.70585L12.4091 13.7059C12.5864 13.8236 12.7636 13.8823 12.9409 13.8823C13.1182 13.8823 13.2954 13.8236 13.4727 13.7059L24.2273 5.70585V17ZM24.2273 1.76471V3.4706L12.9409 11.8235L1.77273 3.4706V1.76471H24.2273Z" fill="#D7D9DF"/>
      </symbol>

    <symbol id="arrow-menu" width="25" height="25" viewBox="0 0 25 25" fill="currentColor" xmlns="http://www.w3.org/2000/svg">
      <g clip-path="url(#clip0)"><path fill-rule="evenodd" clip-rule="evenodd" d="M9 7.4L13.6 12L9 16.6L10.4 18L16.4 12L10.4 6L9 7.4Z" fill="#2C2E3F" fill-opacity="0.5"/>
      </g><defs><clipPath id="clip0"><rect width="12" height="7.4" fill="white" transform="translate(9 18) rotate(-90)"/>
      </clipPath>
      </defs>
    </symbol>

    <symbol id="arrow-right" width="14" height="14" viewBox="0 0 14 14" fill="none" xmlns="http://www.w3.org/2000/svg">
      <path d="M7 1V13" stroke="white" stroke-width="2" stroke-linecap="round" stroke-linejoin="round"/>
      <path d="M13 7L7 13L1 7" stroke="white" stroke-width="2" stroke-linecap="round" stroke-linejoin="round"/>
    </symbol>
</svg>
